<svg width="280" height="336" viewBox="0 0 280 336" fill="none" xmlns="http://www.w3.org/2000/svg">
<path d="M154 234.254C162.369 229.413 168 220.364 168 210C168 194.536 155.464 182 140 182C124.536 182 112 194.536 112 210C112 220.364 117.631 229.413 126 234.254V252C126 259.732 132.268 266 140 266C147.732 266 154 259.732 154 252V234.254Z" fill="black"/>
<path fill-rule="evenodd" clip-rule="evenodd" d="M237.889 120.971C236.502 12.5612 221.224 0 140 0C58.7758 0 43.4981 12.5612 42.1114 120.971C5.65377 133.368 0 161.723 0 224C0 322 14 336 140 336C266 336 280 322 280 224C280 161.723 274.346 133.368 237.889 120.971ZM184.737 31.3301C174.16 28.5701 160.711 27.9906 140 28C119.289 27.9906 105.84 28.5701 95.263 31.3301C86.7888 33.4355 83.7014 36.129 81.6109 39.0491C78.6987 43.1169 75.2857 51.2522 73.0177 68.5988C71.3543 81.1338 70.5301 96.2022 70.1931 115.004C88.4264 112.726 111.31 112 140 112C168.69 112 191.574 112.726 209.807 115.004C209.47 96.2021 208.646 81.1338 206.982 68.5988C204.714 51.2522 201.301 43.1169 198.389 39.0491C196.299 36.129 193.211 33.4355 184.737 31.3301ZM31.5172 171.104C28.9335 182.989 28 199.579 28 224C28 248.421 28.9335 265.011 31.5172 276.896C33.9371 288.027 37.2543 292.439 40.4806 295.079C44.4308 298.311 52.1752 302.059 69.1067 304.589C85.926 307.102 108.637 308 140 308C171.363 308 194.074 307.102 210.893 304.589C227.825 302.059 235.569 298.311 239.519 295.079C242.746 292.44 246.063 288.027 248.483 276.896C251.066 265.011 252 248.421 252 224C252 199.579 251.066 182.989 248.483 171.104C246.063 159.973 242.746 155.561 239.519 152.921C235.569 149.689 227.825 145.941 210.893 143.411C194.074 140.898 171.363 140 140 140C108.637 140 85.9259 140.898 69.1067 143.411C52.1752 145.941 44.4308 149.689 40.4807 152.921C37.2543 155.561 33.9371 159.973 31.5172 171.104Z" fill="black"/>
</svg>
